# xmcd
#
# Track frame offsets:
#	150
#	14160
#	25037
#	48760
#	61117
#	73802
#	92990
#	106490
#	118915
#	129947
#	141967
#	157682
#	172857
#	193945
#
# Disc length: 2823
#
# Revision: 1
# Processed by: cddbd v1.5.1PL0 Copyright (c) Steve Scherf et al.
# Submitted via: dBpowerAMP V4.0
# Normalized: r0:DSETVAR1,TDELIM( - )
#
DISCID=bd0b050e
DTITLE=Various Artist - Mr - Music Country
DYEAR=1996
DGENRE=Country
TTITLE0=Brother Phelps - Anyway The Wind Blows
TTITLE1=Arnold Sanford - That's Why I Sing This Way
TTITLE2=Dan Seals - Still Reelin'
TTITLE3=Jennifer Weatherly - Lucky Day
TTITLE4=Woody Lee - I Can Do That
TTITLE5=Willie Nelson - Goodnight Irene
TTITLE6=Greg Holland - When I Come Back
TTITLE7=Ed Bruce - Painted Girls And Wine
TTITLE8=Wilma Dee - Music Man
TTITLE9=Kenny Chesney - Between Midnight And Daylight
TTITLE10=Travis Tritt - Ten Feet Tall And Bulletproof
TTITLE11=Ty England - Redneck Son
TTITLE12=Lari White - If I'm Not Alredy Crazy
TTITLE13=Ricky Skaggs - Cat's In The Cradle
EXTD=
EXTT0=
EXTT1=
EXTT2=
EXTT3=
EXTT4=
EXTT5=
EXTT6=
EXTT7=
EXTT8=
EXTT9=
EXTT10=
EXTT11=
EXTT12=
EXTT13=
PLAYORDER=
